<svg xmlns="http://www.w3.org/2000/svg" viewBox="0 0 32 32" width="32" height="32">
  <defs>
    <linearGradient id="gc-tile" x1="0" y1="0" x2="1" y2="1">
      <stop offset="0" stop-color="#7048e8" />
      <stop offset="1" stop-color="#ae3ec9" />
    </linearGradient>
    <style>
      /* Self-contained badge — legible on light and dark browser chrome. In dark
         mode add a faint ring so the tile separates from a very dark tab bar. */
      .ring { stroke: rgba(255, 255, 255, 0); }
      @media (prefers-color-scheme: dark) {
        .ring { stroke: rgba(255, 255, 255, 0.25); }
      }
    </style>
  </defs>
  <rect x="1" y="1" width="30" height="30" rx="7" fill="url(#gc-tile)" />
  <rect class="ring" x="1.5" y="1.5" width="29" height="29" rx="6.5" fill="none" stroke-width="1" />
  <g
    transform="translate(4.6 3.4) scale(0.95)"
    fill="none"
    stroke="#ffffff"
    stroke-width="2.2"
    stroke-linecap="round"
    stroke-linejoin="round"
  >
    <path d="M12 5h3.5a5 5 0 0 1 0 10h-5.5l-4.015 4.227a2.3 2.3 0 0 1 -3.923 -2.035l1.634 -8.173a5 5 0 0 1 4.904 -4.019h3.4" />
    <path d="M14 15l4.07 4.284a2.3 2.3 0 0 0 3.925 -2.023l-1.6 -8.232" />
    <path d="M8 9v2" />
    <path d="M7 10h2" />
    <path d="M14 10h2" />
  </g>
</svg>
